<mxfile host="app.diagrams.net" modified="2023-06-12T15:07:04.829Z" agent="Mozilla/5.0 (Windows NT 10.0; Win64; x64) AppleWebKit/537.36 (KHTML, like Gecko) Chrome/114.0.0.0 Safari/537.36" etag="YYDj8BIuIynT7Pz9gizZ" version="21.3.8" type="device">
  <diagram name="Page-1" id="jZ3xH0Bp5XcGDUJyJAH9">
    <mxGraphModel dx="1221" dy="663" grid="1" gridSize="10" guides="1" tooltips="1" connect="1" arrows="1" fold="1" page="1" pageScale="1" pageWidth="4681" pageHeight="3300" math="0" shadow="0">
      <root>
        <mxCell id="0" />
        <mxCell id="1" parent="0" />
        <mxCell id="sDhDCLfs1Wi-H5NGaQwa-1" value="Vodic" style="shape=umlActor;verticalLabelPosition=bottom;verticalAlign=top;html=1;" vertex="1" parent="1">
          <mxGeometry x="280" y="400" width="60" height="100" as="geometry" />
        </mxCell>
        <mxCell id="sDhDCLfs1Wi-H5NGaQwa-2" value="Kreiranje ture" style="ellipse;whiteSpace=wrap;html=1;" vertex="1" parent="1">
          <mxGeometry x="610" y="170" width="140" height="70" as="geometry" />
        </mxCell>
        <mxCell id="sDhDCLfs1Wi-H5NGaQwa-3" value="Prikaz detalja o jednoj zakazanoj turi i otkazivanje" style="ellipse;whiteSpace=wrap;html=1;" vertex="1" parent="1">
          <mxGeometry x="910" y="530" width="140" height="70" as="geometry" />
        </mxCell>
        <mxCell id="sDhDCLfs1Wi-H5NGaQwa-4" value="Prikaz svih zakazanih tura" style="ellipse;whiteSpace=wrap;html=1;" vertex="1" parent="1">
          <mxGeometry x="620" y="545" width="140" height="70" as="geometry" />
        </mxCell>
        <mxCell id="sDhDCLfs1Wi-H5NGaQwa-5" value="Prikaz neaktivnih danasnjih tura" style="ellipse;whiteSpace=wrap;html=1;" vertex="1" parent="1">
          <mxGeometry x="610" y="340" width="140" height="70" as="geometry" />
        </mxCell>
        <mxCell id="sDhDCLfs1Wi-H5NGaQwa-6" value="&amp;lt;&amp;lt;extends&amp;gt;&amp;gt;" style="endArrow=open;endSize=12;dashed=1;html=1;rounded=0;exitX=0;exitY=0.5;exitDx=0;exitDy=0;entryX=1;entryY=0.5;entryDx=0;entryDy=0;" edge="1" parent="1" source="sDhDCLfs1Wi-H5NGaQwa-7" target="sDhDCLfs1Wi-H5NGaQwa-5">
          <mxGeometry width="160" relative="1" as="geometry">
            <mxPoint x="910" y="407.5" as="sourcePoint" />
            <mxPoint x="760" y="402.5" as="targetPoint" />
          </mxGeometry>
        </mxCell>
        <mxCell id="sDhDCLfs1Wi-H5NGaQwa-7" value="Zapocinjanje pracenja ture" style="ellipse;whiteSpace=wrap;html=1;" vertex="1" parent="1">
          <mxGeometry x="880" y="340" width="140" height="70" as="geometry" />
        </mxCell>
        <mxCell id="sDhDCLfs1Wi-H5NGaQwa-8" value="Pracenje aktivne ture" style="ellipse;whiteSpace=wrap;html=1;" vertex="1" parent="1">
          <mxGeometry x="620" y="440" width="140" height="70" as="geometry" />
        </mxCell>
        <mxCell id="sDhDCLfs1Wi-H5NGaQwa-9" value="Prikaz zavrsenih tura" style="ellipse;whiteSpace=wrap;html=1;" vertex="1" parent="1">
          <mxGeometry x="630" y="650" width="140" height="70" as="geometry" />
        </mxCell>
        <mxCell id="sDhDCLfs1Wi-H5NGaQwa-10" value="" style="endArrow=none;html=1;rounded=0;entryX=0.057;entryY=0.718;entryDx=0;entryDy=0;entryPerimeter=0;" edge="1" parent="1" source="sDhDCLfs1Wi-H5NGaQwa-1" target="sDhDCLfs1Wi-H5NGaQwa-2">
          <mxGeometry width="50" height="50" relative="1" as="geometry">
            <mxPoint x="460" y="420" as="sourcePoint" />
            <mxPoint x="510" y="370" as="targetPoint" />
          </mxGeometry>
        </mxCell>
        <mxCell id="sDhDCLfs1Wi-H5NGaQwa-11" value="" style="endArrow=none;html=1;rounded=0;entryX=0;entryY=0.5;entryDx=0;entryDy=0;" edge="1" parent="1" source="sDhDCLfs1Wi-H5NGaQwa-1" target="sDhDCLfs1Wi-H5NGaQwa-5">
          <mxGeometry width="50" height="50" relative="1" as="geometry">
            <mxPoint x="360" y="449" as="sourcePoint" />
            <mxPoint x="638" y="250" as="targetPoint" />
          </mxGeometry>
        </mxCell>
        <mxCell id="sDhDCLfs1Wi-H5NGaQwa-12" value="" style="endArrow=none;html=1;rounded=0;entryX=0.029;entryY=0.318;entryDx=0;entryDy=0;entryPerimeter=0;" edge="1" parent="1" source="sDhDCLfs1Wi-H5NGaQwa-1" target="sDhDCLfs1Wi-H5NGaQwa-8">
          <mxGeometry width="50" height="50" relative="1" as="geometry">
            <mxPoint x="870" y="530" as="sourcePoint" />
            <mxPoint x="920" y="480" as="targetPoint" />
          </mxGeometry>
        </mxCell>
        <mxCell id="sDhDCLfs1Wi-H5NGaQwa-13" value="" style="endArrow=none;html=1;rounded=0;entryX=0.057;entryY=0.218;entryDx=0;entryDy=0;entryPerimeter=0;" edge="1" parent="1" target="sDhDCLfs1Wi-H5NGaQwa-4">
          <mxGeometry width="50" height="50" relative="1" as="geometry">
            <mxPoint x="340" y="460" as="sourcePoint" />
            <mxPoint x="920" y="480" as="targetPoint" />
          </mxGeometry>
        </mxCell>
        <mxCell id="sDhDCLfs1Wi-H5NGaQwa-14" value="" style="endArrow=none;html=1;rounded=0;entryX=0.064;entryY=0.289;entryDx=0;entryDy=0;entryPerimeter=0;exitX=1;exitY=1;exitDx=0;exitDy=0;exitPerimeter=0;" edge="1" parent="1" source="sDhDCLfs1Wi-H5NGaQwa-1" target="sDhDCLfs1Wi-H5NGaQwa-9">
          <mxGeometry width="50" height="50" relative="1" as="geometry">
            <mxPoint x="870" y="780" as="sourcePoint" />
            <mxPoint x="920" y="730" as="targetPoint" />
          </mxGeometry>
        </mxCell>
        <mxCell id="sDhDCLfs1Wi-H5NGaQwa-15" value="&amp;lt;&amp;lt;extends&amp;gt;&amp;gt;" style="endArrow=open;endSize=12;dashed=1;html=1;rounded=0;entryX=0.971;entryY=0.36;entryDx=0;entryDy=0;exitX=0;exitY=0.5;exitDx=0;exitDy=0;entryPerimeter=0;" edge="1" parent="1" source="sDhDCLfs1Wi-H5NGaQwa-3" target="sDhDCLfs1Wi-H5NGaQwa-4">
          <mxGeometry width="160" relative="1" as="geometry">
            <mxPoint x="927" y="650" as="sourcePoint" />
            <mxPoint x="780" y="615" as="targetPoint" />
          </mxGeometry>
        </mxCell>
        <mxCell id="sDhDCLfs1Wi-H5NGaQwa-16" value="Prikaz i pretraga zahteva" style="ellipse;whiteSpace=wrap;html=1;" vertex="1" parent="1">
          <mxGeometry x="620" y="910" width="140" height="70" as="geometry" />
        </mxCell>
        <mxCell id="sDhDCLfs1Wi-H5NGaQwa-17" value="" style="endArrow=none;html=1;rounded=0;exitX=1;exitY=1;exitDx=0;exitDy=0;exitPerimeter=0;entryX=0.057;entryY=0.261;entryDx=0;entryDy=0;entryPerimeter=0;" edge="1" parent="1" source="sDhDCLfs1Wi-H5NGaQwa-1" target="sDhDCLfs1Wi-H5NGaQwa-16">
          <mxGeometry width="50" height="50" relative="1" as="geometry">
            <mxPoint x="910" y="770" as="sourcePoint" />
            <mxPoint x="960" y="720" as="targetPoint" />
          </mxGeometry>
        </mxCell>
        <mxCell id="sDhDCLfs1Wi-H5NGaQwa-18" value="Prihvatanje zahteva" style="ellipse;whiteSpace=wrap;html=1;" vertex="1" parent="1">
          <mxGeometry x="900" y="920" width="140" height="70" as="geometry" />
        </mxCell>
        <mxCell id="sDhDCLfs1Wi-H5NGaQwa-19" value="&amp;lt;&amp;lt;extends&amp;gt;&amp;gt;" style="endArrow=open;endSize=12;dashed=1;html=1;rounded=0;entryX=1.024;entryY=0.615;entryDx=0;entryDy=0;exitX=0;exitY=0.5;exitDx=0;exitDy=0;entryPerimeter=0;" edge="1" parent="1" source="sDhDCLfs1Wi-H5NGaQwa-18" target="sDhDCLfs1Wi-H5NGaQwa-16">
          <mxGeometry width="160" relative="1" as="geometry">
            <mxPoint x="922" y="847" as="sourcePoint" />
            <mxPoint x="741" y="733" as="targetPoint" />
          </mxGeometry>
        </mxCell>
        <mxCell id="sDhDCLfs1Wi-H5NGaQwa-20" value="Prikaz predloga za kreiranje ture" style="ellipse;whiteSpace=wrap;html=1;" vertex="1" parent="1">
          <mxGeometry x="610" y="250" width="140" height="70" as="geometry" />
        </mxCell>
        <mxCell id="sDhDCLfs1Wi-H5NGaQwa-21" value="" style="endArrow=none;html=1;rounded=0;entryX=0;entryY=0.5;entryDx=0;entryDy=0;exitX=0.778;exitY=0.321;exitDx=0;exitDy=0;exitPerimeter=0;" edge="1" parent="1" source="sDhDCLfs1Wi-H5NGaQwa-1" target="sDhDCLfs1Wi-H5NGaQwa-20">
          <mxGeometry width="50" height="50" relative="1" as="geometry">
            <mxPoint x="310" y="510" as="sourcePoint" />
            <mxPoint x="588" y="302" as="targetPoint" />
          </mxGeometry>
        </mxCell>
        <mxCell id="sDhDCLfs1Wi-H5NGaQwa-22" value="Prikaz detalja i statistike zavrsene ture&amp;nbsp;" style="ellipse;whiteSpace=wrap;html=1;" vertex="1" parent="1">
          <mxGeometry x="930" y="640" width="140" height="70" as="geometry" />
        </mxCell>
        <mxCell id="sDhDCLfs1Wi-H5NGaQwa-23" value="&amp;lt;&amp;lt;extends&amp;gt;&amp;gt;" style="endArrow=open;endSize=12;dashed=1;html=1;rounded=0;entryX=1;entryY=0.5;entryDx=0;entryDy=0;exitX=-0.006;exitY=0.385;exitDx=0;exitDy=0;exitPerimeter=0;" edge="1" parent="1" source="sDhDCLfs1Wi-H5NGaQwa-22" target="sDhDCLfs1Wi-H5NGaQwa-9">
          <mxGeometry width="160" relative="1" as="geometry">
            <mxPoint x="914" y="640" as="sourcePoint" />
            <mxPoint x="760" y="645" as="targetPoint" />
          </mxGeometry>
        </mxCell>
        <mxCell id="sDhDCLfs1Wi-H5NGaQwa-24" value="Prikaz detalja zavrsene ture ,ocena i komentara" style="ellipse;whiteSpace=wrap;html=1;" vertex="1" parent="1">
          <mxGeometry x="890" y="750" width="140" height="70" as="geometry" />
        </mxCell>
        <mxCell id="sDhDCLfs1Wi-H5NGaQwa-25" value="&amp;lt;&amp;lt;extends&amp;gt;&amp;gt;" style="endArrow=open;endSize=12;dashed=1;html=1;rounded=0;entryX=0.567;entryY=1.055;entryDx=0;entryDy=0;exitX=0.032;exitY=0.254;exitDx=0;exitDy=0;exitPerimeter=0;entryPerimeter=0;" edge="1" parent="1" source="sDhDCLfs1Wi-H5NGaQwa-24" target="sDhDCLfs1Wi-H5NGaQwa-9">
          <mxGeometry width="160" relative="1" as="geometry">
            <mxPoint x="880" y="763.5" as="sourcePoint" />
            <mxPoint x="721" y="806.5" as="targetPoint" />
          </mxGeometry>
        </mxCell>
        <mxCell id="sDhDCLfs1Wi-H5NGaQwa-26" value="&amp;lt;&amp;lt;extends&amp;gt;&amp;gt;" style="endArrow=open;endSize=12;dashed=1;html=1;rounded=0;entryX=1;entryY=0.5;entryDx=0;entryDy=0;exitX=0.016;exitY=0.651;exitDx=0;exitDy=0;exitPerimeter=0;" edge="1" parent="1" source="sDhDCLfs1Wi-H5NGaQwa-27" target="sDhDCLfs1Wi-H5NGaQwa-24">
          <mxGeometry width="160" relative="1" as="geometry">
            <mxPoint x="1235" y="824" as="sourcePoint" />
            <mxPoint x="1050" y="780" as="targetPoint" />
          </mxGeometry>
        </mxCell>
        <mxCell id="sDhDCLfs1Wi-H5NGaQwa-27" value="Prikaz i prihvatanje ocena i komentara zavrsene ture" style="ellipse;whiteSpace=wrap;html=1;" vertex="1" parent="1">
          <mxGeometry x="1230" y="740" width="140" height="70" as="geometry" />
        </mxCell>
        <mxCell id="sDhDCLfs1Wi-H5NGaQwa-28" value="Prikaz statistike zahteva" style="ellipse;whiteSpace=wrap;html=1;" vertex="1" parent="1">
          <mxGeometry x="590" y="1040" width="140" height="80" as="geometry" />
        </mxCell>
        <mxCell id="sDhDCLfs1Wi-H5NGaQwa-29" value="" style="endArrow=none;html=1;rounded=0;entryX=0;entryY=0.5;entryDx=0;entryDy=0;" edge="1" parent="1" source="sDhDCLfs1Wi-H5NGaQwa-1" target="sDhDCLfs1Wi-H5NGaQwa-28">
          <mxGeometry width="50" height="50" relative="1" as="geometry">
            <mxPoint x="260" y="552" as="sourcePoint" />
            <mxPoint x="548" y="980" as="targetPoint" />
            <Array as="points">
              <mxPoint x="510" y="980" />
            </Array>
          </mxGeometry>
        </mxCell>
        <mxCell id="sDhDCLfs1Wi-H5NGaQwa-30" value="Prikaz profila vodica" style="ellipse;whiteSpace=wrap;html=1;" vertex="1" parent="1">
          <mxGeometry x="360" y="1080" width="140" height="80" as="geometry" />
        </mxCell>
        <mxCell id="sDhDCLfs1Wi-H5NGaQwa-31" value="" style="endArrow=none;html=1;rounded=0;entryX=0.348;entryY=0.034;entryDx=0;entryDy=0;entryPerimeter=0;" edge="1" parent="1" source="sDhDCLfs1Wi-H5NGaQwa-1" target="sDhDCLfs1Wi-H5NGaQwa-30">
          <mxGeometry width="50" height="50" relative="1" as="geometry">
            <mxPoint x="150" y="460" as="sourcePoint" />
            <mxPoint x="408" y="1040" as="targetPoint" />
          </mxGeometry>
        </mxCell>
        <mxCell id="sDhDCLfs1Wi-H5NGaQwa-32" value="&amp;lt;&amp;lt;extends&amp;gt;&amp;gt;" style="endArrow=open;endSize=12;dashed=1;html=1;rounded=0;entryX=0.957;entryY=0.76;entryDx=0;entryDy=0;entryPerimeter=0;" edge="1" parent="1" source="sDhDCLfs1Wi-H5NGaQwa-33" target="sDhDCLfs1Wi-H5NGaQwa-30">
          <mxGeometry width="160" relative="1" as="geometry">
            <mxPoint x="667" y="1196" as="sourcePoint" />
            <mxPoint x="530" y="1194" as="targetPoint" />
          </mxGeometry>
        </mxCell>
        <mxCell id="sDhDCLfs1Wi-H5NGaQwa-33" value="Provera da li je supervodic&lt;br&gt;" style="ellipse;whiteSpace=wrap;html=1;" vertex="1" parent="1">
          <mxGeometry x="640" y="1220" width="140" height="70" as="geometry" />
        </mxCell>
        <mxCell id="sDhDCLfs1Wi-H5NGaQwa-34" value="&amp;lt;&amp;lt;extends&amp;gt;&amp;gt;" style="endArrow=open;endSize=12;dashed=1;html=1;rounded=0;entryX=0.5;entryY=1;entryDx=0;entryDy=0;exitX=0.405;exitY=0.001;exitDx=0;exitDy=0;exitPerimeter=0;" edge="1" parent="1" source="sDhDCLfs1Wi-H5NGaQwa-35" target="sDhDCLfs1Wi-H5NGaQwa-30">
          <mxGeometry width="160" relative="1" as="geometry">
            <mxPoint x="558" y="1319" as="sourcePoint" />
            <mxPoint x="390" y="1230" as="targetPoint" />
          </mxGeometry>
        </mxCell>
        <mxCell id="sDhDCLfs1Wi-H5NGaQwa-35" value="Davanje otkaza&amp;nbsp;" style="ellipse;whiteSpace=wrap;html=1;" vertex="1" parent="1">
          <mxGeometry x="480" y="1360" width="140" height="70" as="geometry" />
        </mxCell>
      </root>
    </mxGraphModel>
  </diagram>
</mxfile>
